# xmcd
#
# Track frame offsets:
#	150
#	18761
#	40803
#	57321
#	77625
#	97619
#	122186
#	141703
#
# Disc length: 2078 seconds
#
# Revision: 0
# Processed by: cddbd v1.5.2PL0 Copyright (c) Steve Scherf et al.
# Submitted via: audiograbber 1.83.01
#
DISCID=61081c08
DTITLE=Impacto Crea - Conciencia
DYEAR=2000
DGENRE=Salsa
TTITLE0=La Universidad De La Vida
TTITLE1=Este Es Un Hogar Seguro
TTITLE2=Señora Felicidad
TTITLE3=Canto A Mi Tierra
TTITLE4=La Historia De Juan Dapena
TTITLE5=Crea Conciencia
TTITLE6=El Que Yo Fui
TTITLE7=Crea En Dios
EXTD=YEAR: 2000
EXTT0=
EXTT1=
EXTT2=
EXTT3=
EXTT4=
EXTT5=
EXTT6=
EXTT7=
PLAYORDER=
